<?xml version="1.0" encoding="UTF-8"?>
<svg width="100" height="100" viewBox="0 0 100 100" xmlns="http://www.w3.org/2000/svg">
  <!-- Brain outline -->
  <path d="M50 10 C25 10, 15 30, 15 50 C15 70, 30 85, 50 85 C70 85, 85 70, 85 50 C85 30, 75 10, 50 10" 
        fill="none" stroke="#0070F3" stroke-width="2" />
  
  <!-- Circuit lines -->
  <path d="M30 30 L70 30 M30 50 L70 50 M30 70 L70 70" 
        stroke="#0070F3" stroke-width="1.5" />
  <path d="M30 30 L30 70 M50 30 L50 70 M70 30 L70 70" 
        stroke="#0070F3" stroke-width="1.5" />
  
  <!-- Connection nodes -->
  <circle cx="30" cy="30" r="3" fill="#0070F3" />
  <circle cx="50" cy="30" r="3" fill="#0070F3" />
  <circle cx="70" cy="30" r="3" fill="#0070F3" />
  <circle cx="30" cy="50" r="3" fill="#0070F3" />
  <circle cx="50" cy="50" r="3" fill="#0070F3" />
  <circle cx="70" cy="50" r="3" fill="#0070F3" />
  <circle cx="30" cy="70" r="3" fill="#0070F3" />
  <circle cx="50" cy="70" r="3" fill="#0070F3" />
  <circle cx="70" cy="70" r="3" fill="#0070F3" />
  
  <!-- Pulse animation -->
  <circle cx="50" cy="50" r="10" fill="rgba(0, 112, 243, 0.3)">
    <animate attributeName="r" values="10;20;10" dur="2s" repeatCount="indefinite" />
    <animate attributeName="opacity" values="0.3;0.1;0.3" dur="2s" repeatCount="indefinite" />
  </circle>
</svg>
